<?xml version="1.0" encoding="UTF-8" standalone="no"?>
<!-- Created with Inkscape (http://www.inkscape.org/) -->

<svg
   xmlns:dc="http://purl.org/dc/elements/1.1/"
   xmlns:cc="http://creativecommons.org/ns#"
   xmlns:rdf="http://www.w3.org/1999/02/22-rdf-syntax-ns#"
   xmlns:svg="http://www.w3.org/2000/svg"
   xmlns="http://www.w3.org/2000/svg"
   xmlns:xlink="http://www.w3.org/1999/xlink"
   xmlns:sodipodi="http://sodipodi.sourceforge.net/DTD/sodipodi-0.dtd"
   xmlns:inkscape="http://www.inkscape.org/namespaces/inkscape"
   version="1.1"
   width="64"
   height="64"
   id="svg13094"
   inkscape:version="0.91 r13725"
   sodipodi:docname="json.svg"
   inkscape:export-filename="/home/guivaloz/Documentos/GitHub/TrcIMPLAN/beta/ibc/datos-abiertos/json.png"
   inkscape:export-xdpi="360"
   inkscape:export-ydpi="360">
  <sodipodi:namedview
     pagecolor="#ffffff"
     bordercolor="#666666"
     borderopacity="1"
     objecttolerance="10"
     gridtolerance="10"
     guidetolerance="10"
     inkscape:pageopacity="0"
     inkscape:pageshadow="2"
     inkscape:window-width="1920"
     inkscape:window-height="1025"
     id="namedview44"
     showgrid="true"
     inkscape:snap-bbox="true"
     inkscape:bbox-nodes="true"
     inkscape:snap-bbox-edge-midpoints="true"
     inkscape:snap-bbox-midpoints="true"
     inkscape:bbox-paths="true"
     inkscape:zoom="6.3828125"
     inkscape:cx="34.998911"
     inkscape:cy="30.960785"
     inkscape:current-layer="svg13094"
     inkscape:window-x="-2"
     inkscape:window-y="32"
     inkscape:window-maximized="1">
    <inkscape:grid
       type="xygrid"
       id="grid4177" />
  </sodipodi:namedview>
  <defs
     id="defs11">
    <radialGradient
       cx="48.24176"
       cy="40.919418"
       r="14.16129"
       fx="40.959122"
       fy="40.608799"
       id="radialGradient3822-5"
       xlink:href="#radialGradient3996-0"
       gradientUnits="userSpaceOnUse"
       gradientTransform="matrix(-2.0491578e-7,2.1591248,-0.51856169,-3.8905836e-8,81.125244,-70.945917)" />
    <radialGradient
       cx="48.30785"
       cy="47.141338"
       r="14.16129"
       id="radialGradient3996-0"
       gradientUnits="userSpaceOnUse"
       gradientTransform="matrix(0.93962333,0.77477937,-1.7975241,2.1799696,88.130548,-93.365748)">
      <stop
         id="stop3954-6"
         style="stop-color:#183e00;stop-opacity:0.40784314"
         offset="0" />
      <stop
         id="stop3958-7"
         style="stop-color:#205400;stop-opacity:0.15686275"
         offset="0.5" />
      <stop
         id="stop3956-2"
         style="stop-color:#349200;stop-opacity:0"
         offset="1" />
    </radialGradient>
    <radialGradient
       cx="48.30785"
       cy="47.141338"
       r="14.16129"
       id="radialGradient3373-0"
       xlink:href="#radialGradient3996-0"
       gradientUnits="userSpaceOnUse"
       gradientTransform="matrix(0.93962333,0.77477937,-1.7975241,2.1799696,88.130548,-93.365748)" />
    <linearGradient
       x1="45"
       y1="52"
       x2="73"
       y2="4"
       id="linearGradient4308-9"
       gradientUnits="userSpaceOnUse">
      <stop
         id="stop4304-2"
         style="stop-color:#000000;stop-opacity:0.10677083"
         offset="0" />
      <stop
         id="stop4306-8"
         style="stop-color:#000000;stop-opacity:0"
         offset="1" />
    </linearGradient>
    <linearGradient
       x1="31"
       y1="64"
       x2="31"
       y2="2"
       id="linearGradient3984-4"
       gradientUnits="userSpaceOnUse">
      <stop
         id="stop3099-5"
         style="stop-color:#74a742;stop-opacity:1"
         offset="0" />
      <stop
         id="stop3875-5"
         style="stop-color:#80bb43;stop-opacity:1"
         offset="0.5" />
      <stop
         id="stop3873-8"
         style="stop-color:#6fa63f;stop-opacity:1"
         offset="0.51612902" />
      <stop
         id="stop3101-9"
         style="stop-color:#75af42;stop-opacity:1"
         offset="1" />
    </linearGradient>
    <linearGradient
       x1="48.992088"
       y1="46.124821"
       x2="37"
       y2="36"
       id="linearGradient4280-6"
       gradientUnits="userSpaceOnUse">
      <stop
         id="stop4293-9"
         style="stop-color:#6e9f3c;stop-opacity:1"
         offset="0" />
      <stop
         id="stop4295-7"
         style="stop-color:#548232;stop-opacity:1"
         offset="0.2098622" />
      <stop
         id="stop4297-0"
         style="stop-color:#679835;stop-opacity:1"
         offset="1" />
    </linearGradient>
    <linearGradient
       gradientUnits="userSpaceOnUse"
       id="linearGradient3873"
       y2="2"
       x2="31"
       y1="64"
       x1="31">
      <stop
         offset="0"
         style="stop-color:#dadada;stop-opacity:1"
         id="stop3875-7" />
      <stop
         offset="0.50050378"
         style="stop-color:#ebebeb;stop-opacity:1"
         id="stop3877" />
      <stop
         offset="0.51612902"
         style="stop-color:#dadada;stop-opacity:1"
         id="stop3879" />
      <stop
         offset="1"
         style="stop-color:#ebebeb;stop-opacity:1"
         id="stop3881" />
    </linearGradient>
    <linearGradient
       inkscape:collect="always"
       xlink:href="#linearGradient3873"
       id="linearGradient3716-0-0-3"
       gradientUnits="userSpaceOnUse"
       gradientTransform="translate(-3562.1943,-1608.2279)"
       x1="3564.7356"
       y1="1664.2279"
       x2="3564.7356"
       y2="1602.2279" />
    <linearGradient
       inkscape:collect="always"
       xlink:href="#linearGradient3873"
       id="linearGradient3800"
       gradientUnits="userSpaceOnUse"
       gradientTransform="translate(-3558.1943,-1574.2255)"
       x1="3564.7356"
       y1="1664.2279"
       x2="3564.7356"
       y2="1602.2279" />
    <linearGradient
       inkscape:collect="always"
       xlink:href="#linearGradient3873"
       id="linearGradient3802"
       gradientUnits="userSpaceOnUse"
       gradientTransform="translate(-3560.8022,-1574.2255)"
       x1="3564.7356"
       y1="1664.2279"
       x2="3564.7356"
       y2="1602.2279" />
    <linearGradient
       inkscape:collect="always"
       xlink:href="#linearGradient3873"
       id="linearGradient3804"
       gradientUnits="userSpaceOnUse"
       gradientTransform="translate(-3562.8074,-1574.2255)"
       x1="3564.7356"
       y1="1664.2279"
       x2="3564.7356"
       y2="1602.2279" />
    <linearGradient
       inkscape:collect="always"
       xlink:href="#linearGradient3873"
       id="linearGradient3806"
       gradientUnits="userSpaceOnUse"
       gradientTransform="translate(-3563.8812,-1574.2255)"
       x1="3564.7356"
       y1="1664.2279"
       x2="3564.7356"
       y2="1602.2279" />
  </defs>
  <metadata
     id="metadata13099">
    <rdf:RDF>
      <cc:Work
         rdf:about="">
        <dc:format>image/svg+xml</dc:format>
        <dc:type
           rdf:resource="http://purl.org/dc/dcmitype/StillImage" />
        <dc:title></dc:title>
      </cc:Work>
    </rdf:RDF>
  </metadata>
  <path
     d="M 4,0 64,0 64,62 4,62 z"
     id="path3960"
     style="fill:#4e7e2b;fill-opacity:1;fill-rule:nonzero" />
  <path
     d="m 60,2 4,4 0,31 -4,-4 z"
     id="path3900"
     style="fill:url(#radialGradient3822-5);fill-rule:nonzero" />
  <path
     d="m 60,33 4,4 0,25 -28.32258,0 z"
     id="path3934"
     style="fill:url(#radialGradient3373-0);fill-rule:nonzero" />
  <path
     d="M 63,0 V 61 H 4 v 1 H 64 V 0 h -1 z"
     id="path4299"
     style="fill:#000000;fill-opacity:0.07887819;fill-rule:nonzero" />
  <path
     d="M 60,2 60,33 35,62 37,62 60.78125,33.65625 61,33.375 61,33 61,3 z"
     id="path3922"
     style="fill:url(#linearGradient4308-9);fill-rule:nonzero" />
  <path
     d="M 0,2 60,2 60,33 34,64 0,64 z"
     id="path3982"
     style="fill:url(#linearGradient3984-4);fill-rule:nonzero" />
  <path
     d="M 0,2 60,2 60,3 0,3 z"
     id="path4052"
     style="color:#000000;fill:#a9df59;fill-opacity:1;fill-rule:nonzero;stroke-width:1;stroke-linecap:butt;stroke-linejoin:miter;stroke-miterlimit:4;stroke-opacity:1;stroke-dasharray:none;stroke-dashoffset:0;marker:none;visibility:visible;display:inline;overflow:visible;enable-background:accumulate" />
  <path
     d="m 0,63 35,0 -1,1 -34,0 z"
     id="path4255"
     style="fill:#000000;fill-opacity:0.10341803;fill-rule:nonzero" />
  <path
     d="M 4,0 64,0 64,1 4,1 z"
     id="path3878"
     style="color:#000000;fill:#a9df59;fill-opacity:1;fill-rule:nonzero;stroke-width:1;stroke-linecap:butt;stroke-linejoin:miter;stroke-miterlimit:4;stroke-opacity:1;stroke-dasharray:none;stroke-dashoffset:0;marker:none;visibility:visible;display:inline;overflow:visible;enable-background:accumulate" />
  <path
     d="M 34,64 60,33 c -2.328567,2.776369 -4.36141,3 -11,3 H 37 v 15 c 0,6.64407 0.04437,9.37018 -3,13 z"
     id="path4278"
     style="fill:url(#linearGradient4280-6);fill-rule:nonzero" />
  <path
     d="m 59,32 c -2.328567,2.776369 -4.36141,3 -11,3 H 36 v 15 c 0,6.64407 0.04437,9.37018 -3,13 4,-5 4.000382,-8.35667 4,-13 V 36 h 11 c 5,0 8.041405,-0.38188 11,-4 z"
     id="path4282"
     style="fill:#a9df59;fill-opacity:1;fill-rule:nonzero" />
  <path
     inkscape:connector-curvature="0"
     id="path3792"
     style="color:#000000;font-style:normal;font-weight:normal;font-size:16.25px;line-height:125%;font-family:sans-serif;letter-spacing:0px;word-spacing:0px;clip-rule:nonzero;display:inline;overflow:visible;visibility:visible;isolation:auto;mix-blend-mode:normal;color-interpolation:sRGB;color-interpolation-filters:linearRGB;solid-color:#000000;solid-opacity:1;fill:url(#linearGradient3800);fill-opacity:1;fill-rule:nonzero;stroke:none;stroke-width:1;stroke-linecap:butt;stroke-linejoin:miter;stroke-miterlimit:4;stroke-dasharray:none;stroke-dashoffset:0;stroke-opacity:1;marker:none;color-rendering:auto;image-rendering:auto;shape-rendering:auto;text-rendering:auto;enable-background:accumulate"
     d="m 3.3652344,6.4194794 3.3642578,0 0,1.1346435 -1.9042969,0 0,12.2192381 1.9042969,0 0,1.134644 -3.3642578,0 0,-14.4885256 z" />
  <g
     id="g3378"
     transform="translate(0.76703128,0)">
    <path
       d="m 14.015995,20.273239 0,1.142578 -0.491943,0 q -1.975708,0 -2.650146,-0.587158 -0.666504,-0.587158 -0.666504,-2.340698 l 0,-1.896362 q 0,-1.198121 -0.4284667,-1.658326 -0.428467,-0.460205 -1.555176,-0.460205 l -0.484009,0 0,-1.134643 0.484009,0 q 1.134644,0 1.555176,-0.452271 0.4284667,-0.460205 0.4284667,-1.642456 l 0,-1.9042968 q 0,-1.75354 0.666504,-2.3327636 0.674438,-0.5871582 2.650146,-0.5871582 l 0.491943,0 0,1.1346435 -0.53955,0 q -1.118775,0 -1.459961,0.3491211 -0.341187,0.3491211 -0.341187,1.4678955 l 0,1.9677735 q 0,1.245728 -0.36499,1.809082 -0.357056,0.563354 -1.229859,0.761719 0.880738,0.214233 1.237793,0.777588 0.357056,0.563354 0.357056,1.801147 l 0,1.967774 q 0,1.118774 0.341187,1.467895 0.341186,0.349121 1.459961,0.349121 l 0.53955,0 z"
       style="color:#000000;font-style:normal;font-weight:normal;font-size:16.25px;line-height:125%;font-family:sans-serif;letter-spacing:0px;word-spacing:0px;clip-rule:nonzero;display:inline;overflow:visible;visibility:visible;isolation:auto;mix-blend-mode:normal;color-interpolation:sRGB;color-interpolation-filters:linearRGB;solid-color:#000000;solid-opacity:1;fill:url(#linearGradient3802);fill-opacity:1;fill-rule:nonzero;stroke:none;stroke-width:1;stroke-linecap:butt;stroke-linejoin:miter;stroke-miterlimit:4;stroke-dasharray:none;stroke-dashoffset:0;stroke-opacity:1;marker:none;color-rendering:auto;image-rendering:auto;shape-rendering:auto;text-rendering:auto;enable-background:accumulate"
       id="path3794"
       inkscape:connector-curvature="0" />
    <path
       d="m 16.081256,20.273239 0.55542,0 q 1.11084,0 1.444092,-0.341186 0.341186,-0.341187 0.341186,-1.47583 l 0,-1.967774 q 0,-1.237793 0.357056,-1.801147 0.357056,-0.563355 1.237793,-0.777588 -0.880737,-0.198365 -1.237793,-0.761719 -0.357056,-0.563354 -0.357056,-1.809082 l 0,-1.9677735 q 0,-1.126709 -0.341186,-1.4678955 -0.333252,-0.3491211 -1.444092,-0.3491211 l -0.55542,0 0,-1.1346435 0.499878,0 q 1.975708,0 2.634277,0.5871582 0.666504,0.5792236 0.666504,2.3327636 l 0,1.9042968 q 0,1.182251 0.428467,1.642456 0.428467,0.452271 1.555176,0.452271 l 0.491943,0 0,1.134643 -0.491943,0 q -1.126709,0 -1.555176,0.460205 -0.428467,0.460205 -0.428467,1.658326 l 0,1.896362 q 0,1.75354 -0.666504,2.340698 -0.658569,0.587158 -2.634277,0.587158 l -0.499878,0 0,-1.142578 z"
       style="color:#000000;font-style:normal;font-weight:normal;font-size:16.25px;line-height:125%;font-family:sans-serif;letter-spacing:0px;word-spacing:0px;clip-rule:nonzero;display:inline;overflow:visible;visibility:visible;isolation:auto;mix-blend-mode:normal;color-interpolation:sRGB;color-interpolation-filters:linearRGB;solid-color:#000000;solid-opacity:1;fill:url(#linearGradient3804);fill-opacity:1;fill-rule:nonzero;stroke:none;stroke-width:1;stroke-linecap:butt;stroke-linejoin:miter;stroke-miterlimit:4;stroke-dasharray:none;stroke-dashoffset:0;stroke-opacity:1;marker:none;color-rendering:auto;image-rendering:auto;shape-rendering:auto;text-rendering:auto;enable-background:accumulate"
       id="path3796"
       inkscape:connector-curvature="0" />
  </g>
  <path
     inkscape:connector-curvature="0"
     id="path3798"
     style="color:#000000;font-style:normal;font-weight:normal;font-size:16.25px;line-height:125%;font-family:sans-serif;letter-spacing:0px;word-spacing:0px;clip-rule:nonzero;display:inline;overflow:visible;visibility:visible;isolation:auto;mix-blend-mode:normal;color-interpolation:sRGB;color-interpolation-filters:linearRGB;solid-color:#000000;solid-opacity:1;fill:url(#linearGradient3806);fill-opacity:1;fill-rule:nonzero;stroke:none;stroke-width:1;stroke-linecap:butt;stroke-linejoin:miter;stroke-miterlimit:4;stroke-dasharray:none;stroke-dashoffset:0;stroke-opacity:1;marker:none;color-rendering:auto;image-rendering:auto;shape-rendering:auto;text-rendering:auto;enable-background:accumulate"
     d="m 28.266079,6.4194794 0,14.4885256 -3.364258,0 0,-1.134644 1.896362,0 0,-12.2192381 -1.896362,0 0,-1.1346435 3.364258,0 z" />
</svg>
